<?xml version="1.0" encoding="UTF-8"?>
<svg
   xmlns="http://www.w3.org/2000/svg"
   width="512"
   height="512"
   viewBox="0, 0, 511, 511">
  <path
     d="m 173.45714,176.57789 -2.241,0 q -9.41218,-2.241 -18.37616,-3.13739 -8.73989,-1.1205 -20.84126,-1.1205 -19.49666,0 -37.648718,8.73987 -18.152063,8.5158 -34.959524,22.18587 l 0,177.71091 -42.130712,0 0,-250.31916 42.130712,0 0,36.97642 q 25.099147,-20.16896 44.147602,-28.46064 19.27256,-8.51578 39.21741,-8.51578 10.98088,0 15.91108,0.67229 4.93018,0.44821 14.79057,2.0169 l 0,43.25121 z"
     style="fill:#ff0000" />
  <path
     d="m 327.02784,365.26968 q -21.06536,10.08449 -40.11382,15.68697 -18.82436,5.60249 -40.11381,5.60249 -27.11604,0 -49.7501,-7.84348 -22.63405,-8.06758 -38.76921,-24.20275 -16.35926,-16.13517 -25.32324,-40.78612 -8.96399,-24.65094 -8.96399,-57.59357 0,-61.40328 33.61493,-96.36279 33.83903,-34.95953 89.19161,-34.95953 21.51356,0 42.13071,6.05068 20.84125,6.0507 38.09692,14.79057 l 0,46.83681 -2.241,0 q -19.27255,-15.01467 -39.88971,-23.08225 -20.39306,-8.06759 -39.88971,-8.06759 -35.85593,0 -56.69718,24.20275 -20.61716,23.97865 -20.61716,70.59135 0,45.2681 20.16895,69.69495 20.39306,24.20275 57.14539,24.20275 12.77366,0 25.99554,-3.36149 13.22187,-3.36149 23.75454,-8.73989 9.18808,-4.70609 17.25567,-9.86038 8.06758,-5.37838 12.77367,-9.18808 l 2.241,0 0,46.3886 z"
     style="fill:#00ff00" />
  <path
     d="m 494.71678,365.26968 q -21.06535,10.08449 -40.11381,15.68697 -18.82436,5.60249 -40.11382,5.60249 -27.11603,0 -49.75009,-7.84348 -22.63405,-8.06758 -38.76922,-24.20275 -16.35926,-16.13517 -25.32325,-40.78612 -8.96397,-24.65094 -8.96397,-57.59357 0,-61.40328 33.61492,-96.36279 33.83903,-34.95953 89.19161,-34.95953 21.51356,0 42.13072,6.05068 20.84125,6.0507 38.09691,14.79057 l 0,46.83681 -2.24099,0 q -19.27256,-15.01467 -39.88971,-23.08225 -20.39307,-8.06759 -39.88973,-8.06759 -35.85592,0 -56.69717,24.20275 -20.61715,23.97865 -20.61715,70.59135 0,45.2681 20.16896,69.69495 20.39305,24.20275 57.14536,24.20275 12.77368,0 25.99555,-3.36149 13.22188,-3.36149 23.75456,-8.73989 9.18807,-4.70609 17.25565,-9.86038 8.06759,-5.37838 12.77368,-9.18808 l 2.24099,0 0,46.3886 z"
     style="fill:#0000ff" />
</svg>
